<svg width="396" height="227.62156738248112" viewBox="0 0 350.00000000000006 201.18067824209194" xmlns="http://www.w.org/2000/svg">
  <defs id="SvgjsDefs1011"></defs>
  <g id="SvgjsG1012" featurekey="symbolFeature-0" transform="matrix(1.5555555820465088,0,0,1.5555555820465088,97.22222222222223,-10.230888366699219)" fill="#55b3f3">
    <g>
      <path d="M34.339,34.648C18.135,34.648,5,47.783,5,63.987C5,80.19,18.135,93.326,34.339,93.326   c16.204,0,29.339-13.136,29.339-29.339C63.678,47.783,50.543,34.648,34.339,34.648z M30.156,46.769   c-4.99,1.207-9.208,4.528-11.572,9.11c-0.524,1.016-1.556,1.599-2.626,1.599c-0.456,0-0.918-0.106-1.352-0.329   c-1.449-0.747-2.018-2.528-1.27-3.977c3.149-6.105,8.773-10.531,15.431-12.142c1.581-0.383,3.179,0.59,3.564,2.175   C32.715,44.789,31.741,46.385,30.156,46.769z"></path>
      <path d="M76.652,13.612c-10.134,0-18.348,8.215-18.348,18.348c0,10.133,8.215,18.348,18.348,18.348S95,42.094,95,31.96   C95,21.827,86.785,13.612,76.652,13.612z M74.036,21.192c-3.121,0.755-5.759,2.832-7.237,5.697c-0.328,0.636-0.973,1-1.642,1   c-0.285,0-0.574-0.066-0.845-0.206c-0.906-0.467-1.262-1.581-0.794-2.487c1.969-3.818,5.487-6.586,9.65-7.593   c0.989-0.239,1.988,0.369,2.229,1.36C75.636,19.954,75.027,20.953,74.036,21.192z"></path>
      <path d="M43.922,30.541c6.618,0,11.982-5.365,11.982-11.982c0-6.618-5.365-11.982-11.982-11.982S31.94,11.941,31.94,18.559   C31.94,25.177,37.305,30.541,43.922,30.541z M35.345,14.142c1.286-2.493,3.583-4.301,6.302-4.959   c0.646-0.156,1.298,0.241,1.455,0.888c0.157,0.647-0.241,1.299-0.888,1.455c-2.038,0.493-3.761,1.849-4.726,3.721   c-0.214,0.415-0.636,0.653-1.072,0.653c-0.186,0-0.375-0.043-0.552-0.135C35.272,15.461,35.04,14.734,35.345,14.142z"></path>
      <path d="M78.244,54.911c-5.652,0-10.235,4.582-10.235,10.235S72.591,75.38,78.244,75.38c5.653,0,10.235-4.582,10.235-10.235   S83.896,54.911,78.244,54.911z M76.784,59.139c-1.741,0.421-3.212,1.58-4.037,3.178c-0.183,0.355-0.543,0.558-0.916,0.558   c-0.159,0-0.32-0.037-0.471-0.115c-0.505-0.261-0.704-0.882-0.443-1.387c1.099-2.13,3.061-3.674,5.383-4.236   c0.552-0.134,1.109,0.206,1.243,0.759C77.677,58.449,77.337,59.005,76.784,59.139z"></path>
    </g>
  </g>
  <g id="SvgjsG1013" featurekey="nameFeature-0" transform="matrix(1.649309754371643,0,0,1.649309754371643,-3.298620211486063,135.20828502270086)" fill="#111111">
    <path d="M7.2 19 l0 14 c0 1.4 1.2 2.6 2.8 2.6 l11.6 0 l0 4.4 l-13 0 c-4 0 -6.6 -2.6 -6.6 -6.2 l0 -15.6 c0 -3.6 2.6 -6.2 6.6 -6.2 l13 0 l0 3 l-1.4 1.4 l-10.2 0 c-1.6 0 -2.8 1.2 -2.8 2.6 z M26.090000000000003 12 l5.2 0 l0 23.6 l13.6 0 l0 4.4 l-18.8 0 l0 -28 z M62.18000000000001 12 l8.6 25.8 l0 2.2 l-5.2 0 l-1.8 -6 l-10 0 l-1.8 6 l-5.2 0 l0 -2.2 l8.6 -25.8 l6.8 0 z M58.580000000000005 17.6 l-3.6 12 l7.6 0 l-3.6 -12 l-0.4 0 z M93.87 34 c0 3.2 -2.8 6 -6.8 6 l-13.4 0 l0 -4.4 l11.8 0 c2 0 3.2 -1.2 3.2 -2.8 l0 -1.4 c0 -1.6 -0.6 -2.4 -1.6 -2.6 l-8.2 -1.8 c-2.8 -0.6 -5 -2.8 -5 -6.2 l0 -2.8 c0 -3.2 2.8 -6 6.8 -6 l12.4 0 l0 3 l-1.4 1.4 l-9.4 0 c-2 0 -3.2 1.2 -3.2 2.8 l0 1 c0 1.6 0.6 2.2 1.6 2.4 l8.2 1.8 c2.8 0.6 5 2.8 5 6.4 l0 3.2 z M117.36000000000001 34 c0 3.2 -2.8 6 -6.8 6 l-13.4 0 l0 -4.4 l11.8 0 c2 0 3.2 -1.2 3.2 -2.8 l0 -1.4 c0 -1.6 -0.6 -2.4 -1.6 -2.6 l-8.2 -1.8 c-2.8 -0.6 -5 -2.8 -5 -6.2 l0 -2.8 c0 -3.2 2.8 -6 6.8 -6 l12.4 0 l0 3 l-1.4 1.4 l-9.4 0 c-2 0 -3.2 1.2 -3.2 2.8 l0 1 c0 1.6 0.6 2.2 1.6 2.4 l8.2 1.8 c2.8 0.6 5 2.8 5 6.4 l0 3.2 z M127.65 40 l-5.2 0 l0 -28 l5.2 0 l0 28 z M139.34 40 l-5.2 0 l0 -28 l19.2 0 l0 3 l-1.4 1.4 l-12.6 0 l0 8.6 l10 0 l0 4.4 l-10 0 l0 10.6 z M162.63 40 l-5.2 0 l0 -28 l5.2 0 l0 28 z M169.12 40 l0 -28 l19.2 0 l0 3 l-1.4 1.4 l-12.6 0 l0 7.2 l10.2 0 l0 4.4 l-10.2 0 l0 7.6 l14 0 l0 4.4 l-19.2 0 z M213.41 23.4 c0 5 -4.6 5.8 -4.6 5.8 l5.4 8.6 l0 2.2 l-5.2 0 l-5.4 -10.4 l-5.6 0 l0 10.4 l-5.2 0 l0 -28 l14 0 c4 0 6.6 2.6 6.6 6.2 l0 5.2 z M198.01 16.4 l0 8.8 l7.4 0 c1.6 0 2.8 -1.2 2.8 -2.6 l0 -3.6 c0 -1.4 -1.2 -2.6 -2.8 -2.6 l-7.4 0 z"></path>
  </g>
</svg>